<svg xmlns="http://www.w3.org/2000/svg" xmlns:xlink="http://www.w3.org/1999/xlink" width="799.3" height="616.8" viewBox="0 0 799.314 616.772" role="img" artist="Katerina Limpitsouni" source="https://undraw.co/"><g transform="matrix(1,0,0,1,-560,-226)"><path d="M 423.8 367.7 C 421.4 367.6 419.1 366.3 417.8 364.3 c -4.9 -7.3 12.9 -23.4 6 -28.9 c -4.2 -3.3 -8.5 -6.4 -12.7 -9.4 C 400.2 318.3 390 311 384.3 301 c -12.4 -21.9 2.2 -52.4 23 -66.1 c 23.3 -15.3 54.1 -17.8 83.8 -18.1 q 4.6 0 9.3 0 h 0 C 553.9 216.8 607.3 221.7 660 231.4 c 17.5 3.2 35.8 7.2 50.6 16.8 c 14.6 9.5 23.5 24.6 22.7 38.3 c -1.3 20 -22.5 35 -41.8 38.9 c -18.4 3.7 -37.6 1.2 -57.8 -1.5 c -4.5 -0.6 -9.1 -1.2 -13.7 -1.7 c -49.7 -5.7 -143.1 12 -147.1 12.7 l -3.9 0.8 L 429.9 364.8 C 428.5 366.7 423.9 367.7 423.8 367.7 Z" transform="matrix(1,0,0,1,379.8,192.2)" fill="#6c63ff"/><path d="M 667.1 261.8 H 456.9 C 454.4 261.8 452.4 259.8 452.4 257.3 C 452.4 254.7 454.4 252.7 456.9 252.7 H 667.1 C 669.6 252.7 671.6 254.7 671.6 257.3 C 671.6 259.8 669.6 261.8 667.1 261.8 Z" transform="matrix(1,0,0,1,381.9,190.7)" fill="#ffffff"/><path d="M 667.1 287.3 H 456.9 C 454.4 287.3 452.4 285.3 452.4 282.8 C 452.4 280.2 454.4 278.2 456.9 278.2 H 667.1 C 669.6 278.2 671.6 280.2 671.6 282.8 C 671.6 285.3 669.6 287.3 667.1 287.3 Z" transform="matrix(1,0,0,1,381.9,193.3)" fill="#ffffff"/><path d="M 482.2 312.8 H 457.7 C 455.2 312.8 453.2 310.8 453.2 308.3 C 453.2 305.7 455.2 303.7 457.7 303.7 h 24.5 C 484.8 303.7 486.8 305.7 486.8 308.3 C 486.8 310.8 484.8 312.8 482.2 312.8 Z" transform="matrix(1,0,0,1,381.2,195.8)" fill="#ffffff"/></g>
</svg>